<?xml version="1.0" encoding="UTF-8"?>
<svg id="Layer_2" data-name="Layer 2" xmlns="http://www.w3.org/2000/svg" viewBox="0 0 716.08 740.4">
  <defs>
    <style>
      .cls-1 {
        fill: #8161eb;
      }
    </style>
  </defs>
  <g id="Layer_1-2" data-name="Layer 1">
    <path class="cls-1" d="M562.18,390.15l137.65,81.26c10.69,6.31,14.29,20.05,8.07,30.8l-62.26,107.55c-6.18,10.68-19.78,14.43-30.56,8.43-26.41-14.71-71.06-39.8-77.14-44.67-31.94-25.47-47.83-63.9-50.4-104.13-3.66-57.43.18-121.76-.77-176.73-.27-15.8-16.43-27.06-30.9-20.7-7.04,3.09-12.92,9.73-12.72,19.48.36,74.38.92,218.38,1.05,323.31.06,43.79.4,80.76.42,103.04,0,12.51-10.14,22.63-22.64,22.61l-130.48-.21c-12.58-.02-22.72-10.3-22.57-22.88l-.18-84.89c.47-38.51,22.89-73.77,56.68-92.26,16.21-8.87,32.01-17.62,46.78-26.33,13.61-8.02,15.44-27.63,2.78-37.08-6.16-4.6-14.53-5.92-22.91-.95-37.81,21.66-96.46,55.04-156.88,89.42-4.02,2.29-8.06,4.59-12.11,6.88-3.25,1.83-6.49,3.68-9.71,5.51l-74.45,42.19c-10.78,6.11-24.47,2.4-30.69-8.31L3.06,499.34c-6.33-10.9-2.53-24.86,8.45-31.05l136.41-76.91c14.96-8.43,15.42-29.81.85-38.89L13.15,268.06c-10.62-6.61-13.85-20.6-7.21-31.2l67.16-107.19c6.44-10.28,19.85-13.65,30.39-7.62,22.5,12.87,58.13,33.72,66.68,41.43,67.87,61.16,52.32,193.38,55.03,284.8.22,7.28,3.76,14.19,9.89,18.12,13.87,8.88,33.29,3.14,33.75-17.59l-.2-426.19c0-12.58,10.25-22.74,22.83-22.62h130.23c12.39.12,22.26,11.45,22.28,23.85l.08,83.51c.04,39.02-21.26,74.95-55.5,93.67-17.84,9.75-35.26,19.34-51.45,28.88-12.98,7.64-15.41,26-4.08,35.93,6.26,5.48,15.27,7.42,24.3,2.07,22.77-13.06,53.11-30.34,86.85-49.55v.49s173.87-99.24,173.87-99.24c10.68-6.1,24.28-2.54,30.6,8.02l64.23,107.21c6.42,10.72,2.93,24.62-7.8,31.03l-142.98,85.41c-14.73,8.8-14.67,30.16.1,38.88Z"/>
  </g>
</svg>
