<?xml version="1.0" encoding="UTF-8"?>
<svg id="Layer_2" data-name="Layer 2" xmlns="http://www.w3.org/2000/svg" viewBox="0 0 108.2 17.26">
  <defs>
    <style>
      .cls-1 {
        fill: #171717;
      }
    </style>
  </defs>
  <g id="Layer_1-2" data-name="Layer 1">
    <g>
      <g>
        <path d="M8.34,16.94l-5.02-7.24v7.24H0V.41h3.31v7.15L7.96.41h3.83l-5.3,8.09,5.89,8.44h-4.04Z"/>
        <path d="M23.92,13.64v3.3h-9.97V.41h3.32v13.23h6.64Z"/>
        <path d="M35.83,14.63h-6.61l-1.06,2.31h-3.59L32.46,0h.1l7.91,16.94h-3.6l-1.04-2.31ZM34.54,11.8l-2.01-4.42-2.02,4.42h4.03Z"/>
        <path d="M50.72,16.94l-5.26-7.81v7.81h-3.32V.41s5.38,0,5.38,0c3.09,0,5.62,2.38,5.62,5.35,0,2.12-1.28,3.98-3.06,4.6l4.7,6.57h-4.06ZM45.45,7.85h2.13c1.13.02,2.13-.89,2.13-2.07s-1.02-2.08-2.13-2.08h-2.13v4.15Z"/>
        <path d="M69.64.37v16.88h-.15l-9.81-9.55v9.26h-3.32V.1h.16l9.79,9.53V.37h3.33Z"/>
        <path d="M71.8,8.7c0-4.75,3.87-8.62,8.59-8.62s8.6,3.88,8.6,8.62-3.88,8.56-8.61,8.56-8.58-3.86-8.58-8.56ZM85.63,8.67c0-2.89-2.36-5.25-5.25-5.25s-5.23,2.36-5.23,5.25,2.35,5.22,5.23,5.22,5.25-2.35,5.25-5.22Z"/>
        <path d="M88.81.41h3.58l2.54,8.34,3.55-8.27h.06l3.54,8.26,2.53-8.33h3.59l-5.38,16.73h-.2l-4.15-8.98-4.09,8.98h-.18L88.81.41Z"/>
      </g>
      <g>
        <path class="cls-1" d="M8.34,16.94l-5.02-7.24v7.24H0V.41h3.31v7.15L7.96.41h3.83l-5.3,8.09,5.89,8.44h-4.04Z"/>
        <path class="cls-1" d="M23.92,13.64v3.3h-9.97V.41h3.32v13.23h6.64Z"/>
        <path class="cls-1" d="M35.83,14.63h-6.61l-1.06,2.31h-3.59L32.46,0h.1l7.91,16.94h-3.6l-1.04-2.31ZM34.54,11.8l-2.01-4.42-2.02,4.42h4.03Z"/>
        <path class="cls-1" d="M50.72,16.94l-5.26-7.81v7.81h-3.32V.41s5.38,0,5.38,0c3.09,0,5.62,2.38,5.62,5.35,0,2.12-1.28,3.98-3.06,4.6l4.7,6.57h-4.06ZM45.45,7.85h2.13c1.13.02,2.13-.89,2.13-2.07s-1.02-2.08-2.13-2.08h-2.13v4.15Z"/>
        <path class="cls-1" d="M69.64.37v16.88h-.15l-9.81-9.55v9.26h-3.32V.1h.16l9.79,9.53V.37h3.33Z"/>
        <path class="cls-1" d="M71.8,8.7c0-4.75,3.87-8.62,8.59-8.62s8.6,3.88,8.6,8.62-3.88,8.56-8.61,8.56-8.58-3.86-8.58-8.56ZM85.63,8.67c0-2.89-2.36-5.25-5.25-5.25s-5.23,2.36-5.23,5.25,2.35,5.22,5.23,5.22,5.25-2.35,5.25-5.22Z"/>
        <path class="cls-1" d="M88.81.41h3.58l2.54,8.34,3.55-8.27h.06l3.54,8.26,2.53-8.33h3.59l-5.38,16.73h-.2l-4.15-8.98-4.09,8.98h-.18L88.81.41Z"/>
      </g>
    </g>
  </g>
</svg>